# xmcd
#
# Track frame offsets:
#	300
#	18039
#	35829
#	56440
#	77210
#	94591
#	108251
#	123375
#	137204
#	160262
#	184660
#	202346
#
# Disc length: 2993 seconds
#
# Revision: 1
# Processed by: cddbd v1.5.2PL0 Copyright (c) Steve Scherf et al.
# Submitted via: audiograbber 1.83.01
#
DISCID=a20bad0c
DTITLE=Cdpool - Street March 07 CD1
DYEAR=2007
DGENRE=R&B
TTITLE0=Timbaland Ft Justin Timberlake and Nelly Furtado - Give It To Me
TTITLE1=Eric Roberson Ft Phonte - Been In Love
TTITLE2=Nas Ft Chrisette Michelle - Can't Forget About You
TTITLE3=Jazzy Jeff and Rhymefest - Jazz 'N' Fess
TTITLE4=Muziq Soulchild - Buddy
TTITLE5=The Nextmen Ft Dynamite MC - Concentration
TTITLE6=Future Fambo - Drunken Dance
TTITLE7=Mr Hudson and The Library - Too Late Too Late Ft Lethal B, Footsie and D Do
TTITLE7=uble E
TTITLE8=Delinquent Ft Donae'o - Colours
TTITLE9=Real - Never Never (Mark Declive Lowe Remix)
TTITLE10=Digga - Let's Creep
TTITLE11=Erica Iji - Within U Without U
EXTD=
EXTT0=
EXTT1=
EXTT2=
EXTT3=
EXTT4=
EXTT5=
EXTT6=
EXTT7=
EXTT8=
EXTT9=
EXTT10=
EXTT11=
PLAYORDER=
